<svg id="Component_14_1" data-name="Component 14 – 1" xmlns="http://www.w3.org/2000/svg" width="50" height="44" viewBox="0 0 50 44">
  <g id="Rectangle_1972" data-name="Rectangle 1972" fill="#fff" stroke="#868686" stroke-width="1">
    <rect width="50" height="44" rx="4" stroke="none"/>
    <rect x="0.5" y="0.5" width="49" height="43" rx="3.5" fill="none"/>
  </g>
  <g id="Group_8154" data-name="Group 8154" transform="translate(12 9)">
    <g id="Group_8153" data-name="Group 8153" transform="translate(0 0)">
      <path id="Path_5581" data-name="Path 5581" d="M25.643,20.794l-2.9-1.933-2.577-1.718a1.142,1.142,0,0,0-1.533.249l-1.595,2.05a1.136,1.136,0,0,1-1.45.3,18.568,18.568,0,0,1-5.185-4,18.7,18.7,0,0,1-4-5.185,1.136,1.136,0,0,1,.3-1.45l2.05-1.595a1.142,1.142,0,0,0,.249-1.533l-1.665-2.5L5.357.508A1.142,1.142,0,0,0,3.82.163L1.53,1.536A2.8,2.8,0,0,0,.26,3.181C-.367,5.464-.493,10.5,7.579,18.573s13.108,7.945,15.391,7.319a2.8,2.8,0,0,0,1.644-1.271l1.374-2.29A1.142,1.142,0,0,0,25.643,20.794Z" transform="translate(0 0)" fill="#868686"/>
      <path id="Path_5582" data-name="Path 5582" d="M282.933,62.694a7.673,7.673,0,0,1,7.665,7.665.451.451,0,0,0,.9,0,8.576,8.576,0,0,0-8.567-8.567.451.451,0,1,0,0,.9Z" transform="translate(-268.054 -58.636)" fill="#868686"/>
      <path id="Path_5583" data-name="Path 5583" d="M282.932,115.658a4.965,4.965,0,0,1,4.96,4.96.451.451,0,0,0,.9,0,5.868,5.868,0,0,0-5.861-5.861.451.451,0,1,0,0,.9Z" transform="translate(-268.053 -108.895)" fill="#868686"/>
      <path id="Path_5584" data-name="Path 5584" d="M282.933,168.625a2.257,2.257,0,0,1,2.254,2.254.451.451,0,0,0,.9,0,3.16,3.16,0,0,0-3.156-3.156.451.451,0,1,0,0,.9Z" transform="translate(-268.054 -159.156)" fill="#868686"/>
    </g>
  </g>
</svg>
