<svg xmlns="http://www.w3.org/2000/svg" width="25.182" height="23.008" viewBox="0 0 25.182 23.008">
  <g id="in" transform="translate(0 -0.301)">
    <path id="Path_145" data-name="Path 145" d="M168.236.3h-9.119A2.717,2.717,0,0,0,156.4,3.019V5.39a.68.68,0,0,0,1.359,0V3.019a1.363,1.363,0,0,1,1.359-1.359h9.119a1.363,1.363,0,0,1,1.359,1.359V20.591a1.363,1.363,0,0,1-1.359,1.359h-9.119a1.363,1.363,0,0,1-1.359-1.359V18.172a.68.68,0,0,0-1.359,0v2.419a2.717,2.717,0,0,0,2.718,2.718h9.119a2.717,2.717,0,0,0,2.718-2.718V3.019A2.722,2.722,0,0,0,168.236.3Zm0,0" transform="translate(-145.771)" fill="#fff"/>
    <path id="Path_146" data-name="Path 146" d="M13.461,103.875a.677.677,0,1,0,.958.958l4.4-4.4a.657.657,0,0,0,.122-.116.68.68,0,0,0-.1-.958l-4.4-5.062a.679.679,0,0,0-1.026.89l3.486,4.016H.68a.68.68,0,1,0,0,1.359H16.763Zm0,0" transform="translate(0 -87.408)" fill="#fff"/>
  </g>
</svg>
