<svg xmlns="http://www.w3.org/2000/svg" width="21.364" height="27" viewBox="0 0 21.364 27">
  <path id="notification" d="M74.357,21.487a4.2,4.2,0,0,1-1.275-1.736,20.086,20.086,0,0,1-1.329-7.937c0-.01,0-.02,0-.03a7.661,7.661,0,0,0-4.51-6.948V3.008a3.009,3.009,0,0,0-3-3.008h-.249a3.009,3.009,0,0,0-3,3.008V4.835a7.661,7.661,0,0,0-4.51,6.979,20.086,20.086,0,0,1-1.329,7.937,4.2,4.2,0,0,1-1.275,1.736.769.769,0,0,0-.422.875.8.8,0,0,0,.793.618h5.8a4.073,4.073,0,0,0,8.145,0h5.8a.8.8,0,0,0,.793-.618A.769.769,0,0,0,74.357,21.487ZM62.571,3.008a1.424,1.424,0,0,1,1.421-1.423h.249a1.424,1.424,0,0,1,1.421,1.423V4.322a7.661,7.661,0,0,0-3.09,0V3.008Zm1.545,22.408a2.5,2.5,0,0,1-2.49-2.436h4.981A2.5,2.5,0,0,1,64.116,25.415Zm3.185-4.02H56.049a8.291,8.291,0,0,0,.415-.728c1.06-2.091,1.6-5.069,1.6-8.854a6.055,6.055,0,1,1,12.11,0c0,.01,0,.019,0,.029,0,3.769.541,6.737,1.6,8.822a8.3,8.3,0,0,0,.415.728Z" transform="translate(-53.434)" fill="#a8322e"/>
</svg>
