<svg xmlns="http://www.w3.org/2000/svg" width="14.008" height="13.02" viewBox="0 0 14.008 13.02">
  <g id="print" transform="translate(0 -18.065)">
    <g id="Group_8139" data-name="Group 8139" transform="translate(4.514 28.51)">
      <g id="Group_8138" data-name="Group 8138">
        <path id="Path_5574" data-name="Path 5574" d="M169.491,399.834h-4.047a.467.467,0,1,0,0,.934h4.047a.467.467,0,0,0,0-.934Z" transform="translate(-164.977 -399.834)" fill="#868686"/>
      </g>
    </g>
    <g id="Group_8141" data-name="Group 8141" transform="translate(4.514 27.037)">
      <g id="Group_8140" data-name="Group 8140">
        <path id="Path_5575" data-name="Path 5575" d="M169.491,346.006h-4.047a.467.467,0,1,0,0,.934h4.047a.467.467,0,0,0,0-.934Z" transform="translate(-164.977 -346.006)" fill="#868686"/>
      </g>
    </g>
    <g id="Group_8143" data-name="Group 8143" transform="translate(0 18.065)">
      <g id="Group_8142" data-name="Group 8142">
        <path id="Path_5576" data-name="Path 5576" d="M12.919,21.234H11.433v-2.7a.467.467,0,0,0-.467-.467H3.042a.467.467,0,0,0-.467.467v2.7H1.09A1.091,1.091,0,0,0,0,22.324v4.7a1.091,1.091,0,0,0,1.09,1.09H2.575v2.507a.467.467,0,0,0,.467.467h7.924a.467.467,0,0,0,.467-.467V28.111h1.486a1.091,1.091,0,0,0,1.09-1.09v-4.7A1.091,1.091,0,0,0,12.919,21.234ZM3.509,19H10.5v2.235H3.509ZM10.5,30.151H3.509v-3.82H10.5C10.5,26.446,10.5,30.063,10.5,30.151Zm.467-6.174H9.777a.467.467,0,0,1,0-.934h1.189a.467.467,0,0,1,0,.934Z" transform="translate(0 -18.065)" fill="#868686"/>
      </g>
    </g>
  </g>
</svg>
