<svg xmlns="http://www.w3.org/2000/svg" width="27.6" height="27.6" viewBox="0 0 27.6 27.6">
  <g id="surface1" transform="translate(0.3 0.3)">
    <path id="Path_4235" data-name="Path 4235" d="M306.75,300a6.75,6.75,0,1,0,6.75,6.75A6.75,6.75,0,0,0,306.75,300Zm0,12.6a5.85,5.85,0,1,1,5.85-5.85A5.85,5.85,0,0,1,306.75,312.6Zm0,0" transform="translate(-286.5 -286.5)" fill="#a8322e" stroke="#a8322e" stroke-width="0.6"/>
    <path id="Path_4236" data-name="Path 4236" d="M354.95,350h-.9v4.05H350v.9h4.05v3.6h.9v-3.6H359v-.9h-4.05Zm0,0" transform="translate(-334.25 -334.25)" fill="#a8322e" stroke="#a8322e" stroke-width="0.6"/>
    <path id="Path_4237" data-name="Path 4237" d="M331.25,0h-9.9A1.35,1.35,0,0,0,320,1.35v9.9a1.35,1.35,0,0,0,1.35,1.35h9.9a1.35,1.35,0,0,0,1.35-1.35V1.35A1.35,1.35,0,0,0,331.25,0Zm.45,11.25a.45.45,0,0,1-.45.45h-9.9a.45.45,0,0,1-.45-.45V1.35a.45.45,0,0,1,.45-.45h9.9a.45.45,0,0,1,.45.45Zm0,0" transform="translate(-305.6 0)" fill="#a8322e" stroke="#a8322e" stroke-width="0.6"/>
    <path id="Path_4238" data-name="Path 4238" d="M8.7,0H1.044A1.044,1.044,0,0,0,0,1.044V8.7A1.044,1.044,0,0,0,1.044,9.745H8.7A1.044,1.044,0,0,0,9.745,8.7V1.044A1.044,1.044,0,0,0,8.7,0Zm.348,8.7a.348.348,0,0,1-.348.348H1.044A.348.348,0,0,1,.7,8.7V1.044A.348.348,0,0,1,1.044.7H8.7a.348.348,0,0,1,.348.348Zm0,0" transform="translate(2.855 2.855)" fill="#a8322e" stroke="#a8322e" stroke-width="0.6"/>
    <path id="Path_4239" data-name="Path 4239" d="M11.25,320H1.35A1.35,1.35,0,0,0,0,321.35v9.9a1.35,1.35,0,0,0,1.35,1.35h9.9a1.35,1.35,0,0,0,1.35-1.35v-9.9A1.35,1.35,0,0,0,11.25,320Zm.45,11.25a.45.45,0,0,1-.45.45H1.35a.45.45,0,0,1-.45-.45v-9.9a.45.45,0,0,1,.45-.45h9.9a.45.45,0,0,1,.45.45Zm0,0" transform="translate(0 -305.6)" fill="#a8322e" stroke="#a8322e" stroke-width="0.6"/>
  </g>
</svg>
